<?xml version="1.0" encoding="UTF-8"?>
<svg xmlns="http://www.w3.org/2000/svg" xmlns:xlink="http://www.w3.org/1999/xlink" width="375pt" height="374.999991pt" viewBox="0 0 375 374.999991" version="1.2">
<defs>
<clipPath id="clip1">
  <path d="M 55.863281 36 L 309 36 L 309 339 L 55.863281 339 Z M 55.863281 36 "/>
</clipPath>
<clipPath id="clip2">
  <path d="M 141.625 58.589844 L 220.222656 58.589844 L 220.222656 130.589844 L 141.625 130.589844 Z M 141.625 58.589844 "/>
</clipPath>
</defs>
<g id="surface1">
<path style=" stroke:none;fill-rule:nonzero;fill:rgb(54.899597%,32.159424%,100%);fill-opacity:1;" d="M 175.75 170.554688 L 115.910156 136.140625 L 115.898438 204.941406 L 175.75 239.339844 Z M 175.75 170.554688 "/>
<g clip-path="url(#clip1)" clip-rule="nonzero">
<path style=" stroke:none;fill-rule:nonzero;fill:rgb(54.899597%,32.159424%,100%);fill-opacity:1;" d="M 182.113281 36.824219 C 180.042969 36.824219 177.976562 36.878906 175.910156 36.980469 C 173.839844 37.082031 171.777344 37.238281 169.71875 37.441406 C 167.660156 37.644531 165.605469 37.898438 163.558594 38.203125 C 161.511719 38.507812 159.472656 38.863281 157.441406 39.265625 C 155.414062 39.671875 153.394531 40.125 151.386719 40.628906 C 149.378906 41.132812 147.386719 41.683594 145.40625 42.285156 C 143.425781 42.886719 141.460938 43.535156 139.511719 44.234375 C 137.566406 44.933594 135.632812 45.675781 133.722656 46.46875 C 131.8125 47.261719 129.917969 48.097656 128.050781 48.984375 C 126.179688 49.867188 124.332031 50.796875 122.503906 51.773438 C 120.679688 52.75 118.878906 53.769531 117.105469 54.832031 C 115.332031 55.894531 113.582031 57 111.863281 58.148438 C 110.140625 59.300781 108.449219 60.488281 106.789062 61.722656 C 105.125 62.953125 103.492188 64.226562 101.894531 65.535156 C 100.292969 66.847656 98.726562 68.199219 97.195312 69.585938 C 95.660156 70.976562 94.160156 72.402344 92.699219 73.863281 C 91.234375 75.324219 89.808594 76.824219 88.417969 78.355469 C 87.027344 79.886719 85.675781 81.453125 84.363281 83.050781 C 83.050781 84.648438 81.777344 86.277344 80.542969 87.9375 C 79.308594 89.597656 78.117188 91.289062 76.96875 93.007812 C 75.816406 94.726562 74.710938 96.472656 73.644531 98.246094 C 72.582031 100.019531 71.5625 101.816406 70.585938 103.640625 C 69.609375 105.464844 68.675781 107.308594 67.792969 109.179688 C 66.90625 111.046875 66.066406 112.9375 65.273438 114.847656 C 64.480469 116.757812 63.734375 118.6875 63.035156 120.632812 C 62.339844 122.578125 61.6875 124.542969 61.085938 126.519531 C 60.484375 128.496094 59.929688 130.488281 59.425781 132.496094 C 58.921875 134.5 58.46875 136.515625 58.0625 138.546875 C 57.660156 140.574219 57.304688 142.609375 56.996094 144.65625 C 56.691406 146.699219 56.4375 148.75 56.234375 150.808594 C 56.027344 152.867188 55.875 154.929688 55.773438 156.992188 C 55.667969 159.058594 55.617188 161.125 55.613281 163.191406 C 55.601562 167.523438 55.816406 171.84375 56.253906 176.152344 C 56.691406 180.460938 57.355469 184.734375 58.238281 188.976562 C 59.125 193.214844 60.230469 197.398438 61.550781 201.523438 C 62.875 205.648438 64.410156 209.691406 66.152344 213.65625 C 67.898438 217.621094 69.847656 221.484375 71.996094 225.246094 C 74.144531 229.007812 76.484375 232.648438 79.011719 236.164062 C 81.542969 239.683594 84.246094 243.058594 87.128906 246.292969 C 90.011719 249.53125 93.054688 252.605469 96.257812 255.523438 L 177.183594 336.972656 C 178.632812 338.085938 180.273438 338.660156 182.101562 338.699219 C 183.707031 338.550781 185.140625 337.976562 186.402344 336.972656 L 266.855469 256.566406 C 269.1875 254.4375 271.433594 252.222656 273.601562 249.925781 C 275.765625 247.625 277.84375 245.25 279.832031 242.796875 C 281.816406 240.34375 283.710938 237.816406 285.507812 235.222656 C 287.308594 232.625 289.007812 229.96875 290.605469 227.246094 C 292.203125 224.523438 293.699219 221.742188 295.089844 218.910156 C 296.480469 216.074219 297.761719 213.191406 298.9375 210.261719 C 300.109375 207.332031 301.175781 204.359375 302.125 201.351562 C 303.078125 198.339844 303.914062 195.300781 304.640625 192.226562 C 305.363281 189.152344 305.972656 186.058594 306.464844 182.941406 C 306.953125 179.824219 307.328125 176.691406 307.585938 173.542969 C 307.84375 170.398438 307.980469 167.246094 308.003906 164.089844 C 308.023438 160.933594 307.925781 157.78125 307.710938 154.632812 C 307.496094 151.480469 307.160156 148.34375 306.710938 145.21875 C 306.257812 142.097656 305.691406 138.992188 305.007812 135.910156 C 304.324219 132.828125 303.527344 129.777344 302.617188 126.753906 C 301.703125 123.734375 300.679688 120.75 299.542969 117.804688 C 298.40625 114.859375 297.164062 111.957031 295.808594 109.105469 C 294.457031 106.253906 293 103.457031 291.433594 100.710938 C 289.871094 97.96875 288.207031 95.289062 286.445312 92.667969 C 284.679688 90.050781 282.820312 87.5 280.867188 85.019531 C 278.910156 82.542969 276.867188 80.136719 274.730469 77.8125 C 272.59375 75.484375 270.375 73.242188 268.074219 71.082031 C 265.769531 68.917969 263.386719 66.847656 260.929688 64.867188 C 258.46875 62.882812 255.941406 60.996094 253.339844 59.203125 C 250.742188 57.410156 248.078125 55.714844 245.347656 54.121094 C 242.621094 52.527344 239.839844 51.039062 237 49.652344 C 234.160156 48.265625 231.273438 46.988281 228.339844 45.820312 C 225.40625 44.652344 222.429688 43.59375 219.417969 42.644531 C 216.402344 41.699219 213.355469 40.867188 210.28125 40.144531 C 207.203125 39.425781 204.105469 38.824219 200.984375 38.335938 C 197.863281 37.847656 194.726562 37.480469 191.578125 37.226562 C 188.425781 36.972656 185.273438 36.839844 182.113281 36.824219 Z M 260.378906 208.640625 C 260.355469 209.207031 260.257812 209.757812 260.089844 210.296875 C 259.917969 210.835938 259.679688 211.339844 259.375 211.816406 C 259.066406 212.289062 258.703125 212.714844 258.285156 213.09375 C 257.863281 213.472656 257.402344 213.789062 256.894531 214.042969 L 184.953125 255.550781 C 184.871094 255.550781 184.730469 255.550781 184.648438 255.621094 C 183.855469 256.085938 183 256.371094 182.085938 256.484375 C 180.964844 256.464844 179.914062 256.175781 178.9375 255.621094 C 178.839844 255.621094 178.714844 255.621094 178.605469 255.550781 L 106.703125 214.042969 C 106.199219 213.789062 105.738281 213.472656 105.316406 213.09375 C 104.894531 212.714844 104.53125 212.289062 104.226562 211.816406 C 103.921875 211.339844 103.683594 210.835938 103.511719 210.296875 C 103.339844 209.757812 103.246094 209.207031 103.222656 208.640625 L 103.222656 125.425781 C 103.246094 124.863281 103.347656 124.3125 103.519531 123.773438 C 103.691406 123.238281 103.929688 122.730469 104.234375 122.257812 C 104.539062 121.78125 104.902344 121.355469 105.320312 120.976562 C 105.742188 120.597656 106.203125 120.28125 106.703125 120.027344 C 107.699219 119.519531 108.753906 119.265625 109.871094 119.265625 C 110.992188 119.265625 112.046875 119.519531 113.042969 120.027344 L 182.085938 159.839844 L 250.585938 119.941406 C 251.578125 119.4375 252.628906 119.1875 253.742188 119.1875 C 254.851562 119.1875 255.90625 119.4375 256.894531 119.941406 C 257.398438 120.199219 257.859375 120.515625 258.277344 120.894531 C 258.699219 121.273438 259.058594 121.699219 259.367188 122.171875 C 259.671875 122.648438 259.910156 123.152344 260.082031 123.691406 C 260.253906 124.226562 260.351562 124.777344 260.378906 125.339844 Z M 260.378906 208.640625 "/>
</g>
<g clip-path="url(#clip2)" clip-rule="nonzero">
<path style=" stroke:none;fill-rule:nonzero;fill:rgb(0%,0%,0%);fill-opacity:1;" d="M 195.601562 66.808594 C 191.472656 66.808594 187.59375 67.851562 184.1875 69.671875 L 184.1875 58.625 L 177.664062 58.625 L 177.664062 69.671875 C 174.257812 67.851562 170.375 66.808594 166.25 66.808594 C 152.738281 66.808594 141.785156 77.804688 141.785156 91.367188 L 141.785156 97.914062 C 141.785156 115.996094 159.3125 130.65625 180.925781 130.65625 C 202.539062 130.65625 220.0625 115.996094 220.0625 97.914062 L 220.0625 91.367188 C 220.0625 77.804688 209.109375 66.808594 195.601562 66.808594 Z M 166.25 73.355469 C 170.140625 73.355469 173.859375 74.609375 177 76.988281 L 180.925781 79.949219 L 184.847656 76.988281 C 187.992188 74.609375 191.710938 73.355469 195.601562 73.355469 C 201.578125 73.355469 206.867188 76.320312 210.125 80.839844 L 200.496094 88.089844 L 190.710938 84.816406 L 180.925781 94.640625 L 171.140625 84.816406 L 161.355469 88.089844 L 151.722656 80.839844 C 154.984375 76.320312 160.273438 73.355469 166.25 73.355469 Z M 213.539062 97.914062 C 213.539062 112.355469 198.910156 124.109375 180.925781 124.109375 C 162.941406 124.109375 148.308594 112.355469 148.308594 97.914062 L 148.308594 91.367188 C 148.308594 89.816406 148.527344 88.328125 148.894531 86.894531 L 160.175781 95.386719 L 169.378906 92.308594 L 180.925781 103.902344 L 192.472656 92.308594 L 201.671875 95.386719 L 212.957031 86.894531 C 213.324219 88.328125 213.539062 89.816406 213.539062 91.367188 Z M 213.539062 97.914062 "/>
</g>
</g>
</svg>
